<svg width="27" height="30" viewBox="0 0 27 30" fill="none" xmlns="http://www.w3.org/2000/svg">
<g clip-path="url(#clip0_8378_1188)">
<path d="M9.1307 4.40215C9.90934 2.16788 13.0578 2.10021 13.981 4.19915L14.0591 4.40344L15.1099 7.41651C15.3507 8.10752 15.7398 8.73985 16.2511 9.27087C16.7623 9.80187 17.3838 10.2192 18.0734 10.4947L18.3559 10.5981L21.4289 11.6272C23.7075 12.3906 23.7766 15.4778 21.6372 16.3829L21.4289 16.4595L18.3559 17.4898C17.6509 17.7259 17.0058 18.1074 16.4641 18.6086C15.9223 19.1099 15.4965 19.7193 15.2153 20.3957L15.1099 20.6715L14.0604 23.6859C13.2817 25.9201 10.1333 25.9878 9.21142 23.8901L9.1307 23.6859L8.08122 20.6727C7.84056 19.9816 7.4515 19.349 6.94027 18.8177C6.42902 18.2865 5.80752 17.8689 5.11769 17.5933L4.83644 17.4898L1.76352 16.4609C-0.516436 15.6973 -0.585445 12.6102 1.55518 11.7063L1.76352 11.6272L4.83644 10.5981C5.54116 10.362 6.18605 9.98043 6.72761 9.47915C7.26916 8.97789 7.69478 8.36856 7.97575 7.69228L8.08122 7.41651L9.1307 4.40215ZM11.5955 5.22693L10.5461 8.24C10.1794 9.2937 9.58288 10.2563 8.79806 11.0609C8.01325 11.8655 7.05902 12.4927 6.0018 12.8988L5.67628 13.015L2.60336 14.044L5.67628 15.073C6.75089 15.4326 7.73266 16.0175 8.55322 16.7871C9.37378 17.5565 10.0134 18.4921 10.4276 19.5289L10.5461 19.848L11.5955 22.8611L12.645 19.848C13.0117 18.7943 13.6082 17.8317 14.393 17.0272C15.1778 16.2225 16.132 15.5953 17.1892 15.1892L17.5148 15.0743L20.5877 14.044L17.5148 13.015C16.4402 12.6554 15.4584 12.0705 14.6379 11.301C13.8173 10.5315 13.1777 9.59582 12.7635 8.55919L12.6463 8.24L11.5955 5.22693ZM22.0122 2.30688e-07C22.2558 -3.01272e-07 22.4945 0.0670005 22.7013 0.193388C22.908 0.319776 23.0744 0.500481 23.1814 0.714968L23.2439 0.864345L23.6997 2.17427L25.0369 2.62112C25.2811 2.70244 25.495 2.853 25.6519 3.0537C25.8086 3.2544 25.9011 3.49622 25.9175 3.74849C25.9339 4.00078 25.8737 4.25218 25.7442 4.47084C25.6148 4.68948 25.4222 4.86553 25.1906 4.97668L25.0369 5.03796L23.7011 5.48482L23.2453 6.79602C23.1622 7.03531 23.0086 7.24505 22.8038 7.39863C22.5991 7.55222 22.3523 7.64273 22.095 7.65874C21.8378 7.67474 21.5814 7.61548 21.3586 7.4885C21.1356 7.36151 20.9563 7.17249 20.843 6.9454L20.7805 6.79602L20.3247 5.4861L18.9875 5.03925C18.7433 4.95793 18.5294 4.80737 18.3727 4.60667C18.2158 4.40597 18.1233 4.16416 18.1069 3.91187C18.0905 3.65959 18.1508 3.40819 18.2802 3.18953C18.4095 2.97089 18.6022 2.79484 18.8337 2.68369L18.9875 2.6224L20.3234 2.17554L20.7791 0.864345C20.8669 0.612096 21.0331 0.393116 21.2542 0.238109C21.4753 0.0831009 21.7403 -0.00015995 22.0122 2.30688e-07Z" fill="white"/>
</g>
<defs>
<clipPath id="clip0_8378_1188">
<rect width="26.5625" height="29.1094" fill="white"/>
</clipPath>
</defs>
</svg>
