<svg width="24" height="24" viewBox="0 0 24 24" fill="none" xmlns="http://www.w3.org/2000/svg">
<g clip-path="url(#clip0_8427_799)">
<path d="M20.713 7.12798L20.467 7.69398C20.4286 7.78615 20.3637 7.86488 20.2806 7.92026C20.1975 7.97563 20.0999 8.00518 20 8.00518C19.9001 8.00518 19.8025 7.97563 19.7194 7.92026C19.6363 7.86488 19.5714 7.78615 19.533 7.69398L19.287 7.12798C18.8545 6.1267 18.0624 5.3239 17.067 4.87798L16.308 4.53898C16.2159 4.49662 16.1379 4.42875 16.0832 4.34341C16.0286 4.25807 15.9995 4.15884 15.9995 4.05748C15.9995 3.95613 16.0286 3.8569 16.0832 3.77155C16.1379 3.68621 16.2159 3.61834 16.308 3.57598L17.025 3.25698C18.0454 2.79836 18.8511 1.96586 19.276 0.930982L19.53 0.319982C19.5672 0.225336 19.632 0.14408 19.716 0.0868075C19.8 0.0295345 19.8993 -0.00109863 20.001 -0.00109863C20.1027 -0.00109863 20.202 0.0295345 20.286 0.0868075C20.37 0.14408 20.4348 0.225336 20.472 0.319982L20.725 0.929982C21.1495 1.96506 21.9548 2.79792 22.975 3.25698L23.693 3.57698C23.7848 3.61946 23.8625 3.68732 23.917 3.77256C23.9715 3.85779 24.0004 3.95683 24.0004 4.05798C24.0004 4.15914 23.9715 4.25818 23.917 4.34341C23.8625 4.42864 23.7848 4.4965 23.693 4.53898L22.933 4.87698C21.9378 5.32335 21.1461 6.12651 20.714 7.12798M8.5 5.99998H6.5V18H8.5V5.99998ZM4 9.99998H2V14H4V9.99998ZM13 1.99998H11V22H13V1.99998ZM17.5 7.99998H15.5V18H17.5V7.99998ZM22 9.99998H20V14H22V9.99998Z" fill="#7996A5"/>
</g>
<defs>
<clipPath id="clip0_8427_799">
<rect width="24" height="24" fill="white"/>
</clipPath>
</defs>
</svg>
