<svg width="12" height="15" viewBox="0 0 12 15" fill="none" xmlns="http://www.w3.org/2000/svg">
<path d="M11.3332 8.00038C11.3332 11.3337 8.99984 13.0004 6.2265 13.967C6.08128 14.0163 5.92353 14.0139 5.77984 13.9604C2.99984 13.0004 0.666504 11.3337 0.666504 8.00038V3.33371C0.666504 3.1569 0.736742 2.98733 0.861766 2.86231C0.98679 2.73729 1.15636 2.66705 1.33317 2.66705C2.6665 2.66705 4.33317 1.86705 5.49317 0.853714C5.63441 0.733047 5.81407 0.666748 5.99984 0.666748C6.1856 0.666748 6.36527 0.733047 6.5065 0.853714C7.67317 1.87371 9.33317 2.66705 10.6665 2.66705C10.8433 2.66705 11.0129 2.73729 11.1379 2.86231C11.2629 2.98733 11.3332 3.1569 11.3332 3.33371V8.00038Z" stroke="#00A63E" stroke-width="1.33333" stroke-linecap="round" stroke-linejoin="round"/>
</svg>
